<?xml version="1.0" encoding="utf-8"?>
<!-- Generator: Adobe Illustrator 24.1.1, SVG Export Plug-In . SVG Version: 6.00 Build 0)  -->
<svg version="1.1" xmlns="http://www.w3.org/2000/svg" xmlns:xlink="http://www.w3.org/1999/xlink" x="0px" y="0px"
	 viewBox="0 0 218.57 137.57" style="enable-background:new 0 0 218.57 137.57;" xml:space="preserve">
<style type="text/css">
	.st0{fill:#F4F4ED;}
	.st1{fill-rule:evenodd;clip-rule:evenodd;fill:#0C0C0B;}
	.st2{fill:#F9D134;}
	.st3{fill:#DBAD1D;}
	.st4{fill:#F7DE72;}
	.st5{fill:#F70012;stroke:#050505;stroke-miterlimit:10;}
	.st6{fill:#F70012;stroke:#000000;stroke-width:0.5;stroke-miterlimit:10;}
</style>
<g id="BACKGROUND">
	<rect x="-159" y="-28.5" class="st0" width="500" height="500"/>
</g>
<g id="OBJECTS">
	<g>
		<g>
			<path class="st1" d="M92.15,14.14c0.57,0.33,0.86,0.58,0.42,1.1C91.8,16.16,90.91,14.45,92.15,14.14 M102.85,14.89
				C105.32,16.02,101.7,16.84,102.85,14.89 M114.03,15.68C116.16,16.93,112.01,17.32,114.03,15.68 M86.3,19.11
				C88.99,20.9,83.76,20.84,86.3,19.11 M96.88,19.85c0.97,0.09,1.93,1.01,0.62,1.63C96.22,21.8,96.33,20.48,96.88,19.85
				 M107.82,20.63C111.4,20.95,105.73,23.75,107.82,20.63 M118.88,21.41c0.28,0.05,1.09,0.25,1.06,0.69
				C119.15,23.79,117.93,22.77,118.88,21.41 M75.36,18.46c0.55,0.33,0.94,0.65,0.34,1.11C74.73,20.3,74.36,18.71,75.36,18.46
				 M130.05,22.32C132.66,24.14,127.59,23.34,130.05,22.32 M91.4,24.73c1.13,0.33,1.15,1.32,0.46,2.11
				C90.39,27.03,89.71,25.03,91.4,24.73 M101.98,25.48c0.97,0.06,2.04,0.85,1.16,1.81C101.91,28.61,100.7,26.59,101.98,25.48
				 M113.04,26.26c1.25,0.16,1.49,1.2,0.7,2.13C112.22,28.49,111.58,26.87,113.04,26.26 M80.34,24.07c0.85,0.31,1.57,1.95,0.19,1.79
				C79.37,25.73,79.35,24.48,80.34,24.07 M123.97,27.15c0.71,0.1,1.62,0.82,0.91,1.56C123.82,29.82,122.97,28.2,123.97,27.15
				 M135.14,28.06C137.71,29.71,132.74,29.67,135.14,28.06 M69.26,23.54C71.73,24.66,68.08,25.53,69.26,23.54 M96.14,30.33
				c1.39,0.3,2.67,2.4,0.55,2.64C94.88,33.17,94.76,30.91,96.14,30.33 M107.08,31.1c1.3,0.28,2.7,2.17,0.71,2.62
				C105.99,34.12,105.66,31.82,107.08,31.1 M85.31,29.68c1.82,0.39,1.81,2.12-0.05,2.45C84.04,31.4,84.29,30.46,85.31,29.68
				 M117.89,31.98c1.17,0.05,2.33,0.82,1.32,2.01C118.01,35.41,116.47,33.42,117.89,31.98 M129.3,32.91
				c1.23,0.41,1.14,1.28,0.34,2.11C128.27,34.92,127.59,33.22,129.3,32.91 M74.24,29.15c1.01,0.01,1.79,0.7,1.03,1.67
				C74.44,31.86,73.33,30.21,74.24,29.15 M140.23,33.93c1.06,0.59,0.87,0.83,0.13,1.6C139.01,35.43,139.48,34.44,140.23,33.93
				 M63.4,28.63C66.16,29.22,61.92,31.13,63.4,28.63 M90.66,35.2c1.74,0.59,2.09,3.17-0.15,3.13C88.16,38.29,89.36,35.8,90.66,35.2
				 M101.12,35.94c1.49,0.27,3.2,1.97,1.13,3.02C100.19,40,99.25,37.01,101.12,35.94 M112.3,36.73c1.6,0.44,2.76,3.03,0.23,3.12
				C110.19,39.93,110.99,37.51,112.3,36.73 M79.47,34.66c1.68,0.37,1.83,1.43,0.79,2.63C78.49,37.75,77.68,35.4,79.47,34.66
				 M122.98,37.73c1.33,0.05,2.72,1.62,1.04,2.52C122.22,41.3,121.76,38.74,122.98,37.73 M68.75,34.15
				c0.81,0.21,1.27,1.16,0.53,1.77C68.07,36.9,67.29,35.05,68.75,34.15 M134.02,38.75c0.84,0.07,1.77,0.71,1.18,1.68
				C134.28,41.94,132.28,39.96,134.02,38.75 M145.31,39.79c1.06,0.59,0.87,0.84,0.13,1.6C144.09,41.3,144.56,40.31,145.31,39.79
				 M57.55,33.72c0.56,0.1,0.8,0.3,1.04,0.81C57.78,35.67,56.91,34.79,57.55,33.72 M95.4,40.8c2.07,0.17,3.24,3.25,0.77,3.64
				c-1.14,0.18-1.55-0.43-2.28-1.18C93.94,41.87,94.25,41.59,95.4,40.8 M106.22,41.56c2.21,0.09,3.35,3.32,0.78,3.6
				C104.3,45.46,104.41,42.74,106.22,41.56 M84.7,40.17c1.7,0.31,2.61,2.78,0.49,3.34C82.67,44,82.82,40.98,84.7,40.17
				 M117.15,42.46c1.95,0.14,3.15,2.87,0.87,3.33C115.49,46.29,115.51,43.51,117.15,42.46 M128.31,43.49
				c2.3,0.49,1.57,3.52-0.31,2.8C126.53,45.72,127.06,43.89,128.31,43.49 M73.49,39.74c1.13,0.22,2.66,1.18,1.26,2.38
				C73.01,43.63,72.16,41.09,73.49,39.74 M63.02,39.25c0.94,0.63,1.2,2.55-0.44,1.98C61.25,40.76,62.25,39.57,63.02,39.25
				 M139.11,44.62c0.77,0.06,1.71,0.61,1.23,1.56C139.47,47.65,137.45,46.06,139.11,44.62 M150.39,45.66
				C152.75,47.49,148.12,47.17,150.39,45.66 M51.93,38.83c0.84,0.5,1.02,0.79,0.15,1.36C51.18,40.13,50.99,39.07,51.93,38.83
				 M100.26,46.4c2.02,0.04,4.05,2.77,1.55,3.92c-1.06,0.49-2.04,0.16-2.88-0.59C98.5,48.04,98.97,47.41,100.26,46.4 M111.56,47.2
				c1.86,0.51,3.42,3.32,0.69,4.09C109.11,52.12,109.2,48.25,111.56,47.2 M89.43,45.76c1.16,0.18,2.15,0.31,2.37,1.68
				c0.14,0.86-0.31,1.74-1.12,2.09C88.01,50.68,86.89,46.81,89.43,45.76 M122.36,48.21c2.02,0.52,2.82,2.92,0.35,3.7
				C120.22,51.56,120.64,49.25,122.36,48.21 M78.6,45.24c1.76,0.32,3.16,2.96,0.69,3.41C76.85,49.1,77.03,46.24,78.6,45.24
				 M133.4,49.35c2.09,0.45,1.92,2.4,0.03,2.94C132.12,51.69,131.55,49.67,133.4,49.35 M67.63,44.83c1.59,0.32,2.14,1.07,1.17,2.53
				C66.69,47.68,66.2,46.29,67.63,44.83 M144.55,50.51c1.15,0.68,1.32,2.13-0.39,2.05C143.28,51.88,143.31,50.73,144.55,50.51
				 M56.79,44.44c1.02,0.1,1.43,0.82,0.85,1.77C56.23,46.41,55.67,45.44,56.79,44.44 M155.47,51.65c0.75,0.44,0.81,0.63,0.28,1.24
				C154.64,53.03,154.51,52.04,155.47,51.65 M94.66,51.27c2.35,0.17,3.85,3.54,1.15,4.49c-1.3,0.11-2.41,0.19-2.95-1.29
				C92.23,52.72,93.36,52.05,94.66,51.27 M105.48,52.03c2.64,0.14,3.87,3.85,0.95,4.57C103.11,57.41,103,53.25,105.48,52.03
				 M116.78,52.95c2.25,0.55,3.06,3.9,0.28,4.33C113.9,57.76,114.29,53.84,116.78,52.95 M83.59,50.73c1.98,0.05,3.78,2.41,1.6,3.75
				c-0.78,0.48-1.9,0.61-2.61-0.08C81.17,53.01,82.39,51.56,83.59,50.73 M127.45,54.07c1.58,0.41,3.19,2.64,0.85,3.49
				c-0.86,0.41-1.73,0.04-2.15-0.78C125.47,55.45,126.34,54.7,127.45,54.07 M72.74,50.34c1.99,0.36,3.07,3.26,0.42,3.37
				C70.81,53.8,71.4,51.2,72.74,50.34 M62.14,49.95c1.12,0.48,1.95,2.04,0.32,2.41C60.65,52.77,60.51,50.25,62.14,49.95
				 M138.23,55.32c2.19,0.44,2.35,2.36,0.05,2.7C136.89,57.19,137.33,56.33,138.23,55.32 M149.39,56.48
				c0.99,0.11,1.55,1.21,0.49,1.75C148.83,58.15,148.05,57.03,149.39,56.48 M50.92,49.65c0.59,0.04,1.34,0.2,1.03,1.05
				C51.03,52.01,50.09,50.86,50.92,49.65 M99.88,56.9c3.09,0.27,3.61,4.75,0.38,5.19C96.59,62.58,97.16,57.93,99.88,56.9
				 M89.06,56.26c1.27,0.39,2.13,0.69,2.41,2.15c0.19,1.04-0.58,2.14-1.57,2.52C86.65,62.18,85.96,57.39,89.06,56.26 M110.45,57.77
				c2.85,0.1,4.15,3.65,1.09,4.7C108.09,63.66,107.71,59.16,110.45,57.77 M121.74,58.81c2.47,0.68,3.04,4.68-0.14,4.3
				C118.53,62.76,119.78,59.65,121.74,58.81 M77.85,55.84c2.56,0.1,2.99,2.6,1.06,3.99c-0.98,0.45-1.81-0.17-2.51-0.79
				C76,57.39,76.42,56.66,77.85,55.84 M132.4,60.05c1.49,0.26,3.28,2.16,1.14,3.23C131.26,64.42,130.47,61.23,132.4,60.05
				 M66.75,55.54c1.21,0.21,3.2,1.4,1.61,2.78C66.46,59.95,64.87,57.01,66.75,55.54 M56.27,55.17c0.96,0.35,1.87,1.98,0.24,2.28
				C54.93,57.75,54.75,55.44,56.27,55.17 M143.3,61.31c1.31,0.26,2.53,1.9,0.69,2.31C142.63,63.93,142,61.85,143.3,61.31
				 M154.46,62.47C157.44,63,152.47,65.33,154.46,62.47 M45.06,54.87C47.83,55.46,43.66,57.24,45.06,54.87 M94.04,61.88
				c3.22,0.25,3.66,4.77,0.73,5.31C90.77,67.93,90.83,63.08,94.04,61.88z M104.85,62.64c3.74,0.15,3.54,5.06,0.35,5.41
				C101.91,68.41,101.47,63.95,104.85,62.64z M83.2,61.36c2.57,0.39,3.61,4.17,0.63,4.71C80.39,66.69,80.42,62.36,83.2,61.36
				 M115.53,63.64c4.38,0.08,3.14,6.07-0.81,4.59C112.71,66.73,113.68,64.55,115.53,63.64z M126.57,64.78
				c1.16,0.26,2,0.34,2.33,1.69c0.35,1.43-0.86,2.36-2.11,2.3C124.08,68.63,124.79,65.7,126.57,64.78 M71.99,61.05
				c1.68,0.27,3.76,2.59,1.21,3.62c-1.02,0.41-1.9-0.05-2.63-0.78C70.4,62.44,70.68,61.84,71.99,61.05 M137.47,66.04
				c1.4,0.07,2.77,1.71,1.23,2.79C136.71,70.22,135.69,67.3,137.47,66.04 M61.13,60.78c1.56,0.4,2.18,1.13,1.16,2.65
				C60.31,63.93,59.11,62.02,61.13,60.78 M148.5,67.31c0.88,0.04,1.91,1.04,0.97,1.81c-0.67,0.55-1.11,0.18-1.69-0.27
				C147.68,68.02,147.97,67.91,148.5,67.31 M50.16,60.49c1.14,0.06,1.49,0.87,0.85,1.77C49.6,62.46,49.04,61.5,50.16,60.49
				 M159.78,68.47c0.56,0.33,0.95,0.64,0.35,1.11C159.15,70.32,158.79,68.73,159.78,68.47 M99.01,67.61
				c3.67,0.16,3.77,5.01,0.71,5.56C96.13,73.81,95.33,69.06,99.01,67.61z M88.18,66.97c3.43,0.27,3.54,4.85,0.48,5.29
				C85.3,72.75,84.77,68.29,88.18,66.97z M109.82,68.5c3.58,0.07,3.77,4.76,0.85,5.32C106.77,74.56,106.73,69.71,109.82,68.5z
				 M77.34,66.57c3.07,0.25,2.88,3.75,0.29,4.54c-1.04-0.06-2.01-0.51-2.29-1.6C74.92,67.9,76.03,67.17,77.34,66.57 M120.49,69.62
				c2.71,0.08,4.22,3.8,1.05,4.53c-0.97,0.22-2.02-0.18-2.52-1.07C118.15,71.5,119.24,70.39,120.49,69.62 M132.01,70.8
				c1.85,0.49,2.63,3.2,0.33,3.72C129.77,75.09,129.47,71.33,132.01,70.8 M66.36,66.29c2.17,0.6,2.56,3.6-0.16,3.44
				C63.8,69.58,65.02,66.92,66.36,66.29 M142.54,72.15c1.73,0.34,2.22,1.45,0.8,2.62C141.61,74.43,141.13,73.32,142.54,72.15
				 M55.01,66.1c1,0.02,2.22,0.58,1.54,1.8C55.66,69.5,53.66,67.75,55.01,66.1 M44.54,65.73c1.09,0.39,0.94,1.04,0.13,1.6
				C43.65,66.8,43.62,66.34,44.54,65.73 M153.56,73.42c1.27,0.09,1.57,1.5,0.24,1.73C152.95,74.6,152.96,74.2,153.56,73.42
				 M93.15,72.7c3.44,0.12,4.22,5.14,0.54,5.38c-1.25,0.09-2.52-0.62-2.87-1.88C90.38,74.29,91.6,73.43,93.15,72.7 M103.97,73.47
				c3.93,0.08,3.81,5.1,0.59,5.55C100.8,79.53,100.93,74.67,103.97,73.47z M82.56,72.2c3.59,0.48,2.58,5.84-0.8,4.66
				C78.76,75.82,80.42,72.84,82.56,72.2 M114.65,74.46c2.4,0.07,4.83,3.86,1.72,4.77c-0.98,0.29-2.09-0.05-2.88-0.66
				C111.62,77.14,113.26,75.37,114.65,74.46 M125.93,75.63c1.13,0.29,2.08,0.54,2.24,1.89c0.14,1.17-0.75,2.24-1.97,2.26
				C123.14,79.84,123.91,76.55,125.93,75.63 M71.34,71.9c2.27,0.17,3.29,3.67,0.67,3.97C69.21,76.18,68.97,72.73,71.34,71.9
				 M137.08,76.9c1.93,0.55,1.77,2.12,0.5,3.22C135.32,79.73,134.84,77.96,137.08,76.9 M60.49,71.62c2.12,0.45,1.94,2.52,0.03,3.07
				C58.94,74.09,58.85,72.15,60.49,71.62 M49.64,71.34c0.8,0.29,1.58,1.23,0.53,1.85C48.63,74.1,48.51,72.19,49.64,71.34
				 M147.6,78.26c1.47,0.25,1.85,0.83,0.83,2.14C146.89,80.29,146.59,79.36,147.6,78.26 M158.76,79.41
				C161.3,80.01,157.33,81.85,158.76,79.41 M98.11,78.56c2.43,0.06,4.23,3,2.02,4.76C96.92,85.89,93.98,80.53,98.11,78.56
				 M87.4,77.93c3.36,0.19,3.49,4.67,0.62,5.18C84.68,83.7,83.94,79.27,87.4,77.93z M108.8,79.44c3.12,0.04,4.72,4.63,1.14,5.26
				c-1.14,0.2-2.27-0.49-2.79-1.5C106.22,81.39,107.38,80.37,108.8,79.44 M120.45,80.5c2.34,0.83,2.96,4.08,0.02,4.62
				c-1.07,0.2-2.37-0.86-2.42-1.94C117.97,81.46,119.03,80.87,120.45,80.5 M76.57,77.53c2.73,0.33,3.11,4.02,0.18,4.3
				c-1.11,0.11-2.02-0.55-2.22-1.71C74.3,78.78,75.5,78.02,76.57,77.53 M131.23,81.75c2.61,0.77,2.03,3.85-0.62,3.63
				C128.65,84.29,129.38,82.36,131.23,81.75 M65.59,77.25c0.92,0.38,1.96,0.65,1.76,1.84c-0.18,1.04-0.74,1.7-1.82,1.52
				C63.39,80.26,63.84,77.85,65.59,77.25 M141.76,83.11c1.39,0.28,2.68,2.22,0.56,2.49C140.52,85.82,140.73,83.96,141.76,83.11
				 M54.36,77.07c1.64,0.06,2.02,1.34,0.81,2.38C53.9,79.36,52.74,77.73,54.36,77.07 M43.76,76.68
				C46.4,78.44,41.47,78.22,43.76,76.68 M152.79,84.38c0.83,0.06,1.82,0.56,0.83,1.46C152.63,86.75,152.25,85.09,152.79,84.38
				 M92.37,83.78c3.8,0.11,3.31,4.44,0.49,5.18C90.27,89.63,88.75,85.26,92.37,83.78z M103.06,84.54c3.68,0.05,3.83,4.68,0.86,5.2
				C100.22,90.39,100.46,85.8,103.06,84.54z M81.66,83.27c2.98,0.33,2.99,3.84,0.28,4.67C78.57,87.77,79.2,84.29,81.66,83.27
				 M113.86,85.54c1.08,0.04,1.8,0.37,2.61,1.04c0.35,1.45,0.37,3.09-1.42,3.53c-1.12,0.28-2.58-0.35-2.82-1.5
				C111.92,87,112.62,86.37,113.86,85.54 M125.02,86.7c1.15,0.26,1.91,0.29,2.17,1.62c0.22,1.12-0.24,1.87-1.3,2.19
				c-1.28,0.38-1.71-0.34-2.39-1.22C123.6,87.79,123.68,87.47,125.02,86.7 M70.44,82.97c0.95,0.15,1.53,0.16,2.02,1.08
				c0.61,1.15-0.23,2.67-1.55,2.59C68.61,86.5,68.67,83.91,70.44,82.97 M136.05,87.97c0.9,0.29,1.52,0.19,1.69,1.28
				c0.15,0.95-0.61,1.79-1.57,1.72C134.05,90.78,134.94,88.7,136.05,87.97 M59.58,82.69c1.18,0.3,2.47,1.37,1.01,2.48
				C58.94,86.43,57.75,83.86,59.58,82.69 M147.08,89.24c1.23,0.29,1.62,1.58,0.22,2.09C146.29,90.86,145.84,89.75,147.08,89.24
				 M48.61,82.41C52.24,83.12,46.25,85.66,48.61,82.41 M97.32,89.76c2.6,0.1,4.23,3.7,1.16,4.49c-1,0.26-2.2,0.03-2.78-0.89
				C94.65,91.72,95.93,90.51,97.32,89.76 M86.49,89.12c3.4,0.19,3.23,5.01-0.21,4.63C83.53,93.44,84.81,89.94,86.49,89.12
				 M108.13,90.65c3.14,0.13,3.77,4.51,0.47,4.71C105.58,95.55,105.95,91.55,108.13,90.65 M119.42,91.69
				c2.28,0.35,3.01,3.55,0.47,4.07c-1.08,0.23-2.23-0.66-2.35-1.7C117.39,92.72,118.31,92.19,119.42,91.69 M75.53,88.71
				c1.67,0.07,3.41,1.96,1.66,3.42c-0.77,0.64-1.67,0.5-2.53,0.19C73.61,90.6,73.9,89.69,75.53,88.71 M130.08,92.93
				c2.39,0.16,2.24,1.89,0.87,3.25C128.81,95.81,128.29,94.29,130.08,92.93 M64.56,88.43c1.44,0.06,2.89,1.84,1.15,2.77
				C63.76,92.49,62.96,89.62,64.56,88.43 M140.98,94.19c0.95,0.05,1.99,0.65,1.39,1.72c-0.29,0.51-0.75,0.62-1.31,0.61
				C139.98,95.61,140.15,95.26,140.98,94.19 M53.58,88.14c0.95,0.05,1.97,0.68,1.16,1.69C53.77,91.04,52.35,89.43,53.58,88.14
				 M152.38,95.36c0.84,0.48,0.86,0.69,0.38,1.5C151.5,96.47,151.33,96.08,152.38,95.36 M91.57,95.11c2.68,0.05,3.46,3.67,0.72,4.34
				c-0.95,0.23-2.16-0.46-2.45-1.4C89.34,96.5,90.36,95.77,91.57,95.11 M102.39,95.87c1.2,0.19,2.09,0.36,2.51,1.69
				c0.4,1.26-0.68,2.52-1.88,2.68c-0.92,0.12-1.92-0.57-2.25-1.45C100.19,97.31,101.25,96.5,102.39,95.87 M113.56,96.78
				c2.68,0.41,2.78,4.11-0.09,3.91C110.62,100.49,111.82,97.58,113.56,96.78 M80.49,94.57c2.6,0.09,3.08,2.64,0.94,3.86
				c-0.85,0.21-2.03-0.33-2.3-1.22C78.73,95.88,79.51,95.23,80.49,94.57 M124.47,97.92c1.28,0.35,2.74,2.23,0.89,3.15
				C123.04,102.23,122.03,98.76,124.47,97.92 M69.77,94.18c1.37,0.06,2.62,1.51,1.34,2.71C69.38,98.5,67.05,95.34,69.77,94.18
				 M135.14,99.16c1.02,0.07,2.38,0.95,1.33,2.05C134.98,102.76,133.77,100.45,135.14,99.16 M58.79,93.9
				c1.42,0.3,2.13,2.37,0.2,2.31C57.43,96.16,57.92,94.47,58.79,93.9 M146.41,100.33c1.03,0.61,1.16,0.82,0.49,1.75
				C145.87,101.85,145.07,100.89,146.41,100.33 M47.83,93.49c0.86,0.15,1.07,0.41,1.02,1.17C47.7,95.47,46.75,94.42,47.83,93.49
				 M97.01,101.12c2.04,0.79,2.71,3.86-0.11,4.04c-0.98,0.06-2.34-1.33-1.84-2.35C95.29,101.67,96.04,101.48,97.01,101.12
				 M107.7,101.99c2.41,0.24,2.77,3.76,0.16,3.8C105.14,105.84,105.9,102.84,107.7,101.99 M85.56,100.56
				c1.11,0.18,2.23,0.3,2.29,1.76c0.04,0.85-0.66,1.81-1.54,1.89C83.74,104.42,83.85,101.64,85.56,100.56 M118.62,103.01
				c1.83,0.5,2.61,3.26,0.13,3.36C116.39,106.46,117.29,103.74,118.62,103.01 M74.73,100.04c1.86,0.32,2.4,1.45,1.25,3.03
				C73.65,103.32,72.71,101.49,74.73,100.04 M129.77,104.17c1.89,0.68,1.42,2.39-0.43,2.66
				C128.09,106.08,128.15,104.37,129.77,104.17 M63.89,99.64c1.06,0.25,1.94,0.96,1.1,2.07C64.02,102.99,61.94,101.05,63.89,99.64
				 M53.04,99.24c0.52,0.14,1.1,0.54,0.89,1.17C53.03,101.7,51.72,100.39,53.04,99.24 M140.32,105.4c1.26,0.11,1.45,0.76,0.85,1.78
				C139.84,107.08,139.16,106.65,140.32,105.4 M90.76,106.56c2.48,0.18,2.58,3.2,0.01,3.3C88.61,109.41,89.57,107.44,90.76,106.56
				 M101.7,107.33c1.68,0.12,2.96,2.23,1.08,3.21C100.7,111.61,99.28,108.09,101.7,107.33 M112.75,108.23
				c2.14,0.16,2.19,2.54,0.27,3.2C110.74,111.16,111.26,109.07,112.75,108.23 M79.68,106.02c1.57,0.05,3.04,2.1,1.09,2.86
				C78.63,109.7,78.3,107.16,79.68,106.02 M123.92,109.26c1.05,0.28,1.68,2,0.5,2.57C122.62,112.71,122.22,110.05,123.92,109.26
				 M68.97,105.51c0.79,0.19,2.05,0.9,1.27,1.92C69.08,108.95,67.05,106.89,68.97,105.51 M134.83,110.4
				c1.05,0.54,0.97,2.4-0.23,1.89C133.49,111.81,133.68,110.6,134.83,110.4 M58,105.1c1.09,0.11,1.39,0.84,0.73,1.77
				C57.21,107.25,57.44,105.89,58,105.1 M95.95,112.67c1.77,0.22,2.37,2.59,0.41,2.84C94.23,115.79,94.64,113.51,95.95,112.67
				 M107.13,113.46c1.32,0.52,2.03,2.82,0.01,2.84C104.91,116.32,105.85,114.07,107.13,113.46 M84.88,112.02
				c1.34,0.24,2.68,1.66,0.82,2.56C83.99,115.4,83.38,112.78,84.88,112.02 M117.81,114.46c1.08,0.15,1.95,0.93,1.09,2.03
				C117.97,117.67,115.69,116.04,117.81,114.46 M73.8,111.48c1.18,0.19,2.03,0.52,1.45,1.94C73.48,114.27,72.68,112.89,73.8,111.48
				 M128.97,115.49c0.77,0.3,1.36,1.44,0.27,1.9C128.14,117.87,127.3,115.78,128.97,115.49 M63.09,110.97
				c0.9,0.25,1.28,0.56,0.99,1.54C62.85,112.9,61.96,111.92,63.09,110.97 M90.32,118.03c1.57,0.58,1.32,1.75-0.05,2.45
				C89.29,119.83,88.42,118.36,90.32,118.03 M101.26,118.8c1.54,0.57,1.26,1.53,0.19,2.46C99.91,120.84,99.56,119.24,101.26,118.8
				 M79.37,117.38c0.73,0.43,1.74,1.36,0.43,2.01C78.12,120.23,78.15,118.11,79.37,117.38 M111.94,119.68
				c1.37,0.37,1.57,1.08,0.71,2.13C110.88,121.99,110.83,120.64,111.94,119.68 M68.3,116.84c0.98,0.26,1.1,0.99,0.48,1.75
				C67.86,118.31,66.99,117.39,68.3,116.84 M122.87,120.69c0.89,0.13,1.68,0.99,0.62,1.63
				C122.22,123.12,122.22,121.29,122.87,120.69 M95.38,124.14c1.18,0.6,0.9,2.45-0.37,1.81C93.99,125.33,94.45,124.44,95.38,124.14
				 M84.19,123.47c0.84,0.23,1.87,0.92,0.61,1.63C83.64,125.75,83.41,124.15,84.19,123.47 M105.95,125c0.5,0.11,2.01,0.55,1.03,1.45
				C105.81,127.52,105.04,126.04,105.95,125 M73.25,122.82c0.86,0.15,1.07,0.41,1.02,1.17C73.25,124.88,72.17,123.75,73.25,122.82
				 M116.88,125.9C120.19,126.13,115.08,128.95,116.88,125.9 M89.51,129.47C92.15,130.95,86.96,131.17,89.51,129.47 M100.45,130.25
				C103.09,131.72,97.88,131.97,100.45,130.25"/>
			<path class="st2" d="M176.41,96.78c0,0-17.69-1.99-22.13,0.85c-13.86,8.87-3.4,29.37-2.76,30.61
				c-0.8-1.23-14.16-21.41-23.53-20.32c-5.46,0.64-9.15,3.72-12.58,9.72s-5.88,15.72-5.88,15.72s-8.36-20.31-15.79-22.03
				c-7.43-1.71-19.03,24.32-19.03,24.32s-2.74-23.73-9.03-28.3c-4.82-3.5-20.12,2.35-27.02,5.28c-2,0.85-3.29,1.45-3.43,1.51
				c0.23-0.2,3.41-3.01,7.04-7.17c2.3-2.63,4.78-5.8,6.79-9.19c3.82-6.4,5.99-13.56,2.17-19.29c-9.15-13.72-27.44-17.07-27.44-17.07
				s29.72-0.08,33.15-6.94c3.38-6.76-11.93-24.69-12.36-25.2c0.54,0.38,20.1,14.33,28.94,10.34c11.53-5.21,6.86-38.3,6.86-38.3
				s10.29,42.3,18.29,35.44s13.15-25.72,13.15-25.72s-0.57,30.87,8.57,29.15c9.01-1.68,22.44-19.99,22.86-20.57
				c-0.29,0.62-13.03,27.44-3.99,28.57c9.14,1.15,23.43-10.29,23.43-10.29s-13.64,20.47-5.73,24.18c0.34,0.17,0.73,0.3,1.16,0.4
				c10.29,2.29,27.8,0.57,27.8,0.57s-27.23,8.01-24.94,17.15C163.26,89.35,176.41,96.78,176.41,96.78z"/>
			<path class="st3" d="M176.41,96.78c0,0-17.69-1.99-22.13,0.85c-13.86,8.87-3.4,29.37-2.76,30.61
				c-0.8-1.23-14.16-21.41-23.53-20.32c-5.46,0.64-9.15,3.72-12.58,9.72s-5.88,15.72-5.88,15.72s-8.36-20.31-15.79-22.03
				c-7.43-1.71-19.03,24.32-19.03,24.32s-2.74-23.73-9.03-28.3c-4.82-3.5-20.12,2.35-27.02,5.28c0.87-1.32,2.2-3.44,3.61-5.66
				c2.77-4.39,5.83-9.22,6.19-9.22c0.2,0.01,0.4,0.03,0.6,0.03c8.45,0.5,16.9-0.89,25.23-2.37c16.44-2.9,32.94-6.12,48.48-12.19
				c12.56-4.9,24.55-11.8,34.19-21.14c0.34,0.17,0.73,0.3,1.16,0.4c10.29,2.29,27.8,0.57,27.8,0.57s-27.23,8.01-24.94,17.15
				C163.26,89.35,176.41,96.78,176.41,96.78z"/>
			<g>
				<path class="st4" d="M155.32,60.71c-0.49,3.35,0.26,6.04,3.49,6.75c3.73,0.83,8.42,1.13,12.87,1.18
					c6.78-3.4,14.23-5.59,14.23-5.59s-17.51,1.71-27.8-0.57C156.8,62.19,155.9,61.57,155.32,60.71z"/>
				<path class="st4" d="M148.96,124.58c1.62,2.2,2.6,3.71,2.6,3.71s-2.41-4.5-3.67-10.25
					C148.01,120.33,148.43,122.56,148.96,124.58z"/>
				<path class="st4" d="M139.25,48.19c-1.16-0.14-1.95-0.71-2.47-1.59c-0.29,3.57,0.46,6.23,3.17,6.57
					c5.43,0.68,12.67-3.07,17.66-6.24c2.32-4.89,5.08-9.03,5.08-9.03S148.4,49.34,139.25,48.19z"/>
				<path class="st4" d="M161.8,82.54c-0.29,0.87-0.35,1.75-0.13,2.64c1.06,4.25,4.46,8.12,7.81,11.06c3.88,0.2,6.93,0.54,6.93,0.54
					S165.45,90.58,161.8,82.54z"/>
				<path class="st4" d="M121.09,45.17c5.47-1.03,12.58-8.19,17.41-13.78c2.1-6.22,4.76-11.78,4.76-11.78
					c0.06-0.05-13.62,18.77-22.86,20.58c-3.97,0.78-6.11-4.66-7.26-11.02C114,37.34,116.1,46.11,121.09,45.17z"/>
				<path class="st4" d="M53.19,85.99c-0.61,13-17.98,28.16-17.98,28.16s3.97-1.86,9.1-3.78C50.02,103.5,56.03,93.82,53.19,85.99z"
					/>
				<path class="st4" d="M57.64,59.46c0.8-1.6,0.55-3.82-0.3-6.29c-0.08,0.47-0.2,0.91-0.4,1.3c-3.43,6.86-33.15,6.94-33.15,6.94
					s5.78,1.06,12.47,4.42C44.98,65.11,55.67,63.41,57.64,59.46z"/>
				<path class="st4" d="M74.22,44.6c11.53-5.2,6.86-38.3,6.86-38.3s10.29,42.3,18.29,35.44c6.45-5.53,11.05-18.86,12.58-23.82
					c-0.19-3.98-0.14-6.88-0.14-6.88s-5.14,18.86-13.15,25.72c-8,6.86-18.29-35.44-18.29-35.44s4.67,33.09-6.86,38.3
					c-8.96,4.05-28.95-10.35-28.95-10.35s3.39,3.94,6.69,8.85C57.88,42.06,68.38,47.24,74.22,44.6z"/>
			</g>
			<g>
				<path d="M143.25,19.61c0,0-0.45,0.78-1.4,2.09c-0.94,1.32-2.42,3.14-4.31,5.33c-1.91,2.16-4.06,4.84-6.83,7.55
					c-1.38,1.35-2.9,2.71-4.65,3.93c-0.87,0.62-1.83,1.17-2.85,1.64c-1.03,0.46-2.17,0.83-3.43,0.84c-1.25,0.03-2.57-0.43-3.47-1.29
					c-0.92-0.84-1.48-1.9-1.85-2.94c-0.31-1-0.62-1.99-0.92-2.96c-0.28-0.98-0.52-1.94-0.72-2.89c-0.79-3.79-0.98-7.27-1.07-10.16
					c-0.08-2.89-0.06-5.23-0.05-6.85c0.01-1.62,0.01-2.51,0.01-2.51s0.29,3.56,0.77,9.31c0.27,2.86,0.64,6.27,1.54,9.93
					c0.23,0.91,0.48,1.84,0.78,2.78c0.31,0.93,0.63,1.89,0.96,2.86c0.34,0.9,0.82,1.75,1.51,2.35c0.67,0.61,1.54,0.92,2.5,0.9
					c0.95,0,1.94-0.29,2.86-0.7c0.92-0.42,1.82-0.91,2.65-1.48c1.68-1.12,3.2-2.4,4.59-3.66c2.79-2.54,5.09-5.11,7.13-7.15
					c2.02-2.06,3.62-3.75,4.67-4.98C142.73,20.34,143.25,19.61,143.25,19.61z"/>
			</g>
			<g>
				<path d="M162.69,37.91c0,0-0.55,0.59-1.67,1.55c-1.11,0.96-2.79,2.28-4.99,3.72c-1.09,0.74-2.34,1.45-3.7,2.21
					c-0.67,0.39-1.37,0.78-2.13,1.13c-0.75,0.35-1.49,0.77-2.32,1.08c-0.83,0.3-1.64,0.71-2.55,0.94c-0.45,0.13-0.9,0.26-1.36,0.39
					c-0.47,0.11-0.96,0.17-1.44,0.26c-0.48,0.11-1,0.1-1.51,0.12c-0.51,0.05-1.04-0.04-1.58-0.13c-1.05-0.21-2.19-0.69-2.95-1.63
					c-0.77-0.9-1.14-2.03-1.26-3.08c-0.03-0.3-0.06-0.43-0.06-0.75l-0.01-0.84c0.07-0.5,0.13-1,0.21-1.49
					c0.37-1.91,0.92-3.65,1.43-5.31c1.07-3.31,2.18-6.23,3.14-8.67c1.93-4.87,3.29-7.81,3.29-7.81s-1,3.08-2.61,8.06
					c-0.79,2.49-1.72,5.46-2.65,8.77c-0.44,1.66-0.93,3.4-1.23,5.21c-0.07,0.45-0.11,0.89-0.17,1.34l0.01,0.6
					c-0.01,0.17,0.05,0.51,0.07,0.7c0.11,0.88,0.41,1.7,0.94,2.32c1.06,1.28,3.02,1.41,4.75,1.2c0.44-0.07,0.88-0.11,1.32-0.21
					c0.43-0.11,0.86-0.22,1.29-0.34c0.86-0.19,1.66-0.56,2.46-0.81c0.81-0.26,1.55-0.65,2.3-0.95c0.75-0.3,1.46-0.65,2.14-1
					c1.37-0.67,2.65-1.3,3.78-1.95C160.21,40.02,162.69,37.91,162.69,37.91z"/>
			</g>
			<g>
				<path d="M162.69,37.91c0,0-0.55,1.16-1.44,3.03c-0.87,1.87-2.06,4.45-3.37,7.3c-1.31,2.84-2.47,5.41-3.07,7.35
					c-0.3,0.97-0.45,1.78-0.44,2.34c0,0.28,0.02,0.51,0.07,0.65c0.04,0.15,0.06,0.23,0.06,0.23s-0.04-0.07-0.12-0.2
					c-0.09-0.13-0.16-0.35-0.24-0.64c-0.14-0.58-0.17-1.47-0.04-2.52c0.26-2.11,1.12-4.92,2.46-7.81c1.34-2.9,2.87-5.35,4.07-7.05
					C161.81,38.86,162.69,37.91,162.69,37.91z"/>
			</g>
			<g>
				<path d="M175.4,96.53c0,0-0.77-0.06-2.16-0.12c-1.39-0.06-3.41-0.12-5.88-0.06c-2.47,0.08-5.43,0.23-8.6,0.88
					c-1.57,0.33-3.21,0.77-4.72,1.54c-1.51,0.71-2.75,1.98-3.78,3.46c-1.02,1.49-1.77,3.13-2.13,4.77
					c-0.08,0.41-0.15,0.82-0.18,1.22c-0.03,0.43-0.06,0.86-0.09,1.29c-0.05,0.85-0.08,1.68-0.09,2.49
					c-0.02,1.62,0.07,3.15,0.29,4.57c0.21,1.41,0.59,2.72,0.88,3.93c1.15,4.84,2.1,7.78,2.1,7.78s-1.29-2.82-2.8-7.58
					c-0.37-1.18-0.85-2.47-1.16-3.95c-0.32-1.47-0.49-3.06-0.54-4.73c-0.03-0.84-0.03-1.69-0.01-2.56c0.02-0.44,0.03-0.88,0.05-1.32
					c0.03-0.47,0.09-0.95,0.18-1.42c0.37-1.87,1.17-3.68,2.3-5.32c1.13-1.62,2.59-3.09,4.36-3.88c1.71-0.82,3.46-1.23,5.12-1.5
					c3.32-0.53,6.33-0.5,8.83-0.4c2.5,0.12,4.51,0.36,5.9,0.56C174.64,96.38,175.4,96.53,175.4,96.53z"/>
			</g>
			<g>
				<path d="M151.04,128.3c0,0-0.53-0.72-1.49-2.03c-0.98-1.29-2.42-3.14-4.31-5.34c-1.89-2.18-4.21-4.74-7.03-7.28
					c-1.41-1.26-2.94-2.52-4.72-3.38c-1.77-0.85-3.82-1.2-5.91-0.98c-2.08,0.21-4.07,0.91-5.78,1.92c-1.72,1.02-3.18,2.34-4.39,3.75
					c-2.43,2.85-3.89,5.99-4.91,8.67c-1.01,2.7-1.62,4.97-2.06,6.53c-0.43,1.57-0.67,2.43-0.67,2.43s0.16-0.88,0.44-2.48
					c0.31-1.6,0.74-3.91,1.59-6.72c0.86-2.78,2.19-6.11,4.65-9.22c1.23-1.54,2.76-3.01,4.61-4.16c1.86-1.15,4.04-1.95,6.36-2.18
					c2.32-0.24,4.69,0.18,6.67,1.18c1.98,1,3.55,2.39,4.95,3.73c2.8,2.7,4.99,5.41,6.76,7.72c1.76,2.32,3.06,4.29,3.93,5.66
					C150.59,127.51,151.04,128.3,151.04,128.3z"/>
			</g>
			<g>
				<path d="M109.53,133.36c0,0-0.39-0.72-1.11-2.03c-0.72-1.3-1.77-3.18-3.15-5.45c-1.39-2.26-3.12-4.9-5.28-7.63
					c-1.08-1.37-2.27-2.75-3.59-4.09c-1.27-1.32-2.84-2.57-4.44-2.09c-0.79,0.21-1.54,0.76-2.2,1.4c-0.67,0.64-1.3,1.39-1.92,2.1
					c-1.23,1.44-2.36,2.88-3.4,4.28c-2.08,2.81-3.79,5.46-5.18,7.72c-1.38,2.27-2.44,4.14-3.16,5.45c-0.71,1.31-1.11,2.03-1.11,2.03
					s0.3-0.77,0.9-2.13c0.6-1.37,1.5-3.33,2.73-5.7c1.24-2.37,2.81-5.15,4.81-8.08c1-1.46,2.11-2.97,3.33-4.47
					c0.62-0.74,1.23-1.51,1.99-2.24c0.75-0.72,1.64-1.45,2.83-1.77c1.18-0.34,2.49-0.05,3.44,0.52c0.97,0.56,1.71,1.29,2.39,2
					c1.33,1.42,2.51,2.88,3.56,4.32c2.1,2.88,3.69,5.65,4.93,8.02c1.24,2.37,2.13,4.34,2.73,5.71
					C109.22,132.6,109.53,133.36,109.53,133.36z"/>
			</g>
			<g>
				<path d="M74.99,135.06c0,0-1.07-3.3-2.31-8.75c-0.64-2.72-1.35-5.96-2.33-9.49c-0.48-1.75-1.1-3.57-1.91-5.34
					c-0.41-0.88-0.87-1.76-1.43-2.55c-0.56-0.77-1.22-1.5-1.99-1.75c-0.86-0.27-1.92-0.36-2.91-0.41c-1-0.04-2-0.02-2.95,0.08
					c-0.23,0.03-0.46,0.06-0.68,0.1l-0.72,0.15c-0.48,0.1-0.95,0.21-1.42,0.31c-0.94,0.22-1.85,0.43-2.75,0.64
					c-3.57,0.86-6.75,1.78-9.4,2.63c-2.65,0.86-4.76,1.64-6.22,2.19c-1.45,0.57-2.26,0.88-2.26,0.88s0.76-0.41,2.17-1.09
					c1.41-0.68,3.46-1.63,6.07-2.67c2.6-1.03,5.76-2.14,9.33-3.14c0.89-0.25,1.81-0.5,2.75-0.73c0.47-0.12,0.95-0.23,1.43-0.35
					l0.73-0.17c0.27-0.06,0.54-0.1,0.8-0.14c1.05-0.13,2.1-0.16,3.17-0.13c1.08,0.05,2.14,0.11,3.32,0.47
					c1.28,0.44,2.07,1.42,2.7,2.3c0.63,0.91,1.11,1.86,1.52,2.81c0.82,1.9,1.39,3.78,1.82,5.6c0.86,3.62,1.39,6.9,1.85,9.66
					C74.28,131.68,74.99,135.06,74.99,135.06z"/>
			</g>
			<g>
				<path d="M35.74,113.76c0,0,0.21-0.14,0.61-0.42c0.39-0.29,0.96-0.72,1.63-1.36c1.35-1.26,3.09-3.29,4.97-6.01
					c1.89-2.71,3.97-6.04,5.99-9.9c1-1.93,2.03-3.98,2.82-6.16c0.88-2.11,0.76-4.45,0.04-6.78c-0.71-2.32-1.87-4.46-3.15-6.41
					c-1.27-1.93-2.83-3.57-4.43-5.01c-1.6-1.44-3.25-2.67-4.87-3.69c-0.81-0.5-1.62-0.95-2.42-1.34c-0.82-0.4-1.6-0.78-2.35-1.14
					c-2.96-1.49-5.38-2.64-7.11-3.28c-0.86-0.33-1.55-0.55-2.01-0.7c-0.47-0.14-0.71-0.21-0.71-0.21S25,61.4,25.48,61.5
					c0.48,0.11,1.18,0.28,2.07,0.54c1.79,0.52,4.31,1.51,7.34,2.83c0.76,0.32,1.56,0.66,2.39,1.01c0.85,0.36,1.71,0.79,2.58,1.27
					c1.72,0.98,3.47,2.18,5.17,3.62c1.7,1.43,3.38,3.12,4.77,5.16c1.37,2.01,2.61,4.24,3.39,6.77c0.38,1.26,0.62,2.57,0.63,3.89
					c0.03,1.31-0.3,2.68-0.76,3.79c-0.88,2.29-1.98,4.34-3.05,6.27c-2.16,3.84-4.43,7.13-6.48,9.75c-2.04,2.63-3.95,4.58-5.4,5.75
					c-0.72,0.59-1.33,0.98-1.75,1.24C35.96,113.63,35.74,113.76,35.74,113.76z"/>
			</g>
			<g>
				<path d="M26.67,61.47c0,0,0.85,0,2.39-0.05c1.54-0.05,3.76-0.16,6.48-0.44c2.72-0.29,5.95-0.74,9.48-1.51
					c1.76-0.38,3.61-0.83,5.48-1.36c1.83-0.54,3.69-1.32,4.71-2.85c1.03-1.53,1.12-3.55,0.88-5.4c-0.25-1.88-0.82-3.68-1.44-5.34
					c-1.28-3.33-2.92-6.15-4.46-8.4c-1.53-2.26-2.97-3.96-3.99-5.1c-0.51-0.57-0.92-1.01-1.21-1.29c-0.28-0.29-0.43-0.45-0.43-0.45
					s0.16,0.14,0.47,0.4c0.31,0.26,0.76,0.65,1.33,1.18c1.12,1.06,2.71,2.64,4.41,4.83c1.71,2.18,3.55,4.96,5.01,8.37
					c0.71,1.71,1.36,3.56,1.68,5.6c0.15,1.02,0.22,2.09,0.09,3.19c-0.12,1.1-0.48,2.23-1.14,3.22c-0.66,0.99-1.6,1.74-2.57,2.25
					c-0.97,0.52-1.98,0.86-2.96,1.13c-1.95,0.51-3.82,0.91-5.63,1.23c-3.61,0.64-6.9,0.92-9.66,1.03c-2.76,0.1-5,0.02-6.53-0.06
					C27.52,61.56,26.67,61.47,26.67,61.47z"/>
			</g>
			<g>
				<path d="M111.95,12.23c0,0-1.68,3.47-4.05,9.23c-1.21,2.87-2.61,6.31-4.34,10.07c-0.43,0.94-0.89,1.9-1.38,2.87
					c-0.48,0.99-1.12,2.06-2.15,2.86c-0.52,0.39-1.16,0.71-1.87,0.79c-0.69,0.11-1.44-0.03-2.05-0.28
					c-1.22-0.51-2.22-1.29-3.09-2.25c-1.56-1.9-2.94-3.76-4.03-5.85c-0.55-1.1-0.84-2.14-1.22-3.16c-0.36-1.02-0.69-2.03-1.01-3.01
					c-1.27-3.93-2.26-7.51-3.13-10.5C81.91,7,80.67,3.35,80.67,3.35s1.58,3.53,3.65,9.42c1.03,2.94,2.25,6.44,3.6,10.33
					c0.36,0.96,0.72,1.95,1.09,2.96c0.39,0.99,0.74,2.07,1.22,2.97c1.01,1.87,2.43,3.76,3.88,5.52c0.71,0.79,1.62,1.49,2.54,1.88
					c0.9,0.39,1.79,0.26,2.55-0.29c0.76-0.57,1.34-1.41,1.81-2.34c0.5-0.94,0.99-1.88,1.45-2.79c1.84-3.67,3.41-7.03,4.78-9.83
					C109.95,15.54,111.95,12.23,111.95,12.23z"/>
			</g>
			<g>
				<path d="M44.56,29.27c0,0,0.19,0.16,0.54,0.47c0.36,0.3,0.91,0.72,1.64,1.21c1.48,0.97,3.75,2.15,6.65,3.44
					c0.72,0.33,1.48,0.67,2.28,1.03c0.79,0.35,1.63,0.82,2.42,1.2c1.64,0.78,3.53,1.32,5.56,1.83c1.02,0.26,2.06,0.52,3.13,0.79
					c1.03,0.27,2.1,0.46,3.17,0.5c1.07,0.04,2.15-0.09,3.14-0.47c0.99-0.4,1.9-0.99,2.54-1.87c1.34-1.82,2.29-4.02,3.09-6.09
					c0.75-2.1,1.27-4.2,1.58-6.25c0.62-4.09,0.55-7.88,0.51-11.05c-0.07-3.17-0.13-5.75-0.11-7.53c0.01-1.78,0.06-2.76,0.06-2.76
					s0.04,0.98,0.16,2.76c0.14,1.77,0.35,4.34,0.61,7.51c0.22,3.17,0.49,6.99-0.02,11.25c-0.25,2.12-0.73,4.34-1.48,6.55
					c-0.81,2.19-1.71,4.42-3.25,6.51c-0.8,1.09-1.98,1.86-3.18,2.32c-1.22,0.45-2.51,0.58-3.71,0.51c-1.21-0.07-2.37-0.31-3.46-0.62
					c-1.06-0.3-2.09-0.59-3.1-0.88c-2.03-0.58-3.98-1.22-5.68-2.12c-0.87-0.47-1.58-0.93-2.36-1.32c-0.77-0.4-1.5-0.79-2.21-1.15
					c-2.83-1.46-5.05-2.82-6.47-3.91c-0.7-0.55-1.22-1.02-1.55-1.35C44.73,29.45,44.56,29.27,44.56,29.27z"/>
			</g>
			<g>
				<path d="M149.8,62.57c0,0-0.16-0.39-0.44-1.09c-0.13-0.35-0.29-0.77-0.54-1.23c-0.24-0.47-0.45-1.01-0.8-1.56
					c-0.31-0.56-0.66-1.17-1.09-1.78c-0.39-0.64-0.9-1.25-1.39-1.91c-1.06-1.28-2.29-2.59-3.71-3.84c-1.44-1.23-2.92-2.26-4.33-3.13
					c-0.73-0.39-1.41-0.81-2.09-1.11c-0.67-0.35-1.32-0.6-1.92-0.83c-0.6-0.27-1.16-0.4-1.66-0.57c-0.5-0.17-0.93-0.28-1.3-0.35
					c-0.73-0.18-1.14-0.28-1.14-0.28s0.41-0.06,1.16-0.18c0.38-0.06,0.85-0.12,1.39-0.11c0.54,0,1.18-0.04,1.86,0.06
					c0.69,0.06,1.45,0.16,2.25,0.37c0.81,0.16,1.64,0.46,2.52,0.78c1.72,0.71,3.52,1.73,5.17,3.14c1.62,1.43,2.9,3.07,3.84,4.67
					c0.44,0.82,0.86,1.6,1.13,2.38c0.32,0.76,0.52,1.5,0.68,2.17c0.19,0.66,0.25,1.3,0.32,1.84c0.09,0.54,0.1,1.01,0.09,1.39
					C149.8,62.15,149.8,62.57,149.8,62.57z"/>
			</g>
			<g>
				<path d="M154.04,49.88c0,0-0.22-0.21-0.61-0.6c-0.37-0.39-0.95-0.92-1.65-1.53c-1.41-1.23-3.41-2.68-5.73-4.04
					c-2.33-1.35-4.58-2.37-6.35-2.99c-0.88-0.31-1.62-0.55-2.14-0.68c-0.53-0.15-0.82-0.24-0.82-0.24s0.29-0.09,0.83-0.22
					c0.54-0.14,1.34-0.26,2.34-0.31c1.01-0.05,2.21,0.04,3.53,0.32c1.31,0.3,2.72,0.81,4.07,1.59c1.34,0.79,2.48,1.77,3.39,2.76
					c0.89,1.01,1.57,2.01,2.03,2.91c0.46,0.89,0.75,1.65,0.89,2.19C153.97,49.58,154.04,49.88,154.04,49.88z"/>
			</g>
			<g>
				<path d="M89.56,107.49c0,0-0.81,0.17-2.26,0.46c-0.37,0.07-0.78,0.15-1.22,0.24c-0.45,0.07-0.94,0.11-1.47,0.16
					c-1.06,0.09-2.27,0.27-3.62,0.23c-0.67,0-1.38,0-2.12,0c-0.74-0.01-1.5-0.11-2.29-0.17c-1.59-0.09-3.26-0.42-5.03-0.74
					c-3.5-0.78-7.28-2.03-10.98-3.92c-3.68-1.94-6.89-4.3-9.54-6.7c-1.28-1.26-2.52-2.43-3.51-3.68c-0.51-0.61-1.03-1.18-1.46-1.77
					c-0.42-0.6-0.83-1.18-1.22-1.73c-0.81-1.08-1.36-2.17-1.9-3.09c-0.26-0.47-0.51-0.89-0.72-1.29c-0.19-0.42-0.36-0.79-0.51-1.14
					c-0.6-1.36-0.93-2.12-0.93-2.12s0.47,0.67,1.32,1.89c0.21,0.3,0.44,0.64,0.69,1.01c0.27,0.36,0.59,0.73,0.91,1.14
					c0.67,0.8,1.35,1.77,2.28,2.7c0.44,0.48,0.9,0.98,1.38,1.5c0.48,0.52,1.05,1,1.59,1.53c1.07,1.09,2.36,2.08,3.66,3.18
					c2.7,2.08,5.82,4.16,9.28,5.98c3.5,1.78,6.99,3.12,10.25,4.12c1.65,0.43,3.21,0.91,4.71,1.15c0.75,0.14,1.47,0.32,2.17,0.42
					c0.7,0.09,1.38,0.18,2.03,0.26c1.29,0.22,2.47,0.22,3.52,0.3c0.52,0.03,1.01,0.08,1.46,0.08c0.45-0.01,0.86-0.01,1.22-0.02
					C88.74,107.5,89.56,107.49,89.56,107.49z"/>
			</g>
			<g>
				<path d="M65.02,110.79c0,0-0.44-0.01-1.24-0.04c-0.8-0.03-1.96-0.14-3.38-0.38c-1.42-0.24-3.09-0.66-4.9-1.29
					c-1.8-0.65-3.73-1.53-5.62-2.69c-1.88-1.17-3.53-2.5-4.93-3.81c-1.38-1.33-2.51-2.63-3.36-3.8c-0.86-1.16-1.48-2.14-1.86-2.84
					c-0.38-0.7-0.59-1.09-0.59-1.09s0.34,0.29,0.94,0.8c0.59,0.53,1.47,1.25,2.56,2.12c2.17,1.75,5.24,3.95,8.76,6.13
					c3.53,2.17,6.88,3.91,9.42,5.07c1.26,0.58,2.31,1.04,3.05,1.33C64.61,110.62,65.02,110.79,65.02,110.79z"/>
			</g>
			<g>
				<path d="M159.95,62.6c0,0-0.12,0.03-0.33,0.07c-0.22,0.05-0.54,0.08-0.93,0.06c-0.79-0.02-1.93-0.32-2.91-1.11
					c-0.97-0.79-1.5-1.84-1.69-2.62c-0.1-0.39-0.13-0.71-0.13-0.93c0-0.22,0-0.34,0-0.34s0.06,0.11,0.16,0.29
					c0.1,0.19,0.26,0.45,0.47,0.75c0.41,0.6,1.06,1.33,1.88,1.99c0.82,0.66,1.66,1.15,2.33,1.43c0.34,0.14,0.62,0.25,0.83,0.3
					C159.84,62.56,159.95,62.6,159.95,62.6z"/>
			</g>
			<g>
				<path d="M185.29,62.07c0,0-0.59,0.14-1.52,0.37c-0.94,0.22-2.22,0.54-3.66,0.82c-1.44,0.28-2.77,0.42-3.74,0.46
					c-0.97,0.05-1.57,0.01-1.57,0.01s0.59-0.14,1.52-0.37c0.94-0.22,2.22-0.54,3.66-0.82c1.44-0.28,2.77-0.42,3.74-0.46
					C184.69,62.04,185.29,62.07,185.29,62.07z"/>
			</g>
			<g>
				<path d="M186.07,62.09c0,0-0.63,0.32-1.64,0.82c-1.01,0.51-2.38,1.23-3.87,2.06c-1.49,0.84-2.82,1.63-3.77,2.23
					c-0.95,0.6-1.55,0.98-1.55,0.98s0.48-0.52,1.33-1.27c0.86-0.75,2.11-1.72,3.63-2.57c1.52-0.85,3-1.43,4.09-1.77
					C185.38,62.22,186.07,62.09,186.07,62.09z"/>
			</g>
			<g>
				<path d="M175.26,96.11c0,0-1.02-0.44-2.55-1.37c-1.53-0.93-3.56-2.39-5.47-4.35c-1.91-1.97-3.32-4.03-4.21-5.58
					c-0.89-1.56-1.31-2.58-1.31-2.58s0.73,0.83,1.9,2.16c1.17,1.32,2.81,3.09,4.66,4.99c1.85,1.9,3.58,3.59,4.87,4.79
					C174.45,95.36,175.26,96.11,175.26,96.11z"/>
			</g>
		</g>
		<g>
			<g>
				<path d="M17.89,61.03c1.21-0.15,3.47-0.55,6.79-1.2c2.86-0.53,5.16-0.87,6.9-1.02c0.68-0.03,1.34-0.04,1.98-0.04
					c4.98,0,7.44,1.39,7.41,4.18c0,3.94-3.09,7.88-9.27,11.82c3.88-0.21,6.13,0.65,6.73,2.58c0.11,0.42,0.17,0.84,0.17,1.29
					c0,2.22-1.36,4.47-4.07,6.75c-2.07,1.75-4.64,3.29-7.69,4.62c-3.66,1.6-7.86,2.4-12.61,2.4c-0.75,0-1.51-0.02-2.26-0.04
					c1.47-6.07,3.09-14.23,4.86-24.48C17.35,64.97,17.7,62.69,17.89,61.03z M23.89,79.51c-0.3,1.13-0.62,2.65-0.96,4.58
					c5.31-1.27,7.97-2.72,7.97-4.35c0-0.59-0.66-0.89-1.98-0.89C27.75,78.84,26.07,79.07,23.89,79.51z M27,67.6
					c-0.3,0.98-0.58,1.95-0.85,2.93l-0.79,2.93c2.75-1.33,4.71-2.87,5.88-4.62c0.26-0.38,0.4-0.7,0.4-0.93
					c0-0.5-0.49-0.76-1.47-0.76C29.41,67.16,28.35,67.31,27,67.6z"/>
				<path d="M32.65,92.84c5.54-11.11,10.03-21.81,13.46-32.12l17.19-2.27c-1.96,8.97-2.85,19.59-2.66,31.85l-11.99,2.18l0.85-5.55
					l-3.79,0.58l-1.19,3.91L32.65,92.84z M50.41,80.95l2.6-16.77h-0.06l-5.31,17.19L50.41,80.95z"/>
				<path d="M91.23,68.09c-1.58,1.24-4.71,3.91-9.39,8c-1.58,1.33-3.15,2.67-4.69,4c-2.04,1.75-3.47,3.11-4.3,4.09l13.34-0.71
					l-1.19,8.31c-9.76,0.21-17.91,0.67-24.43,1.38l0.06-8.22c1.58-1.45,4.73-4.16,9.44-8.13l9.78-8.22
					c-3.24,0.21-6.73,0.55-10.46,1.02l0.4-8.4l22.9-1.42C92.36,61.62,91.87,64.39,91.23,68.09z"/>
				<path d="M95.7,60.9l9.73-1.42c-3.92,11.88-6.48,22.17-7.69,30.88l-8.99,1.95L95.7,60.9z"/>
				<path d="M107.74,61.03l9.78-1.55c-0.08,0.92-0.11,2.22-0.11,3.91c0,4.03,0.17,7.57,0.51,10.62c0.19,1.75,0.47,3.15,0.85,4.22
					l3.85-17.33l9.73-1.42c-3.92,11.88-6.48,22.17-7.69,30.88l-8.93,1.95c-0.04-0.06-0.28-0.58-0.74-1.55l-2.94-6.58
					c-0.49-1.07-0.77-1.75-0.85-2.04c-0.79,3.5-1.41,6.89-1.87,10.17l-9.05,2.13L107.74,61.03z"/>
				<path d="M136.97,93.33c-4,0-6.82-1.69-8.48-5.06c-0.87-1.69-1.3-3.58-1.3-5.69c0-1.98,0.4-4.16,1.19-6.53
					c1.32-4.06,3.67-7.77,7.07-11.15c4.11-4.12,8.48-6.18,13.12-6.18c4.03,0,6.88,1.75,8.54,5.24l-6.28,5.29
					c-0.68-0.8-1.68-1.2-3-1.2c-2.56,0-4.98,1.39-7.24,4.18c-1.7,2.1-2.96,4.43-3.79,6.97c-0.34,1.01-0.51,1.91-0.51,2.71
					c0,1.21,0.4,2.19,1.19,2.93c0.87,0.83,2.07,1.24,3.62,1.24c1.77,0,3.41-0.64,4.92-1.91c1.21-1.01,2.19-2.28,2.94-3.82
					c-2.79,0.44-5.37,0.9-7.75,1.38l1.79-6.51l15.01-2.53c0.08,1.92-0.45,4.13-1.58,6.61c-1.02,2.19-2.28,4.2-3.79,6.04
					C148.23,90.66,143.01,93.33,136.97,93.33z"/>
				<path d="M149.86,92.84c5.54-11.11,10.03-21.81,13.46-32.12l17.19-2.27c-1.96,8.97-2.85,19.59-2.66,31.85l-11.99,2.18l0.85-5.55
					l-3.79,0.58l-1.19,3.91L149.86,92.84z M167.62,80.95l2.6-16.77h-0.06l-5.32,17.19L167.62,80.95z"/>
			</g>
			<g>
				<g>
					<path d="M185.15,90.93c1.16-0.1,2.14,0.2,2.91,0.88c0.93,0.75,1.26,1.81,1.03,3.17c-0.32,1.84-1.37,3.4-3.08,4.69
						c-1.33,1.02-2.66,1.53-4.02,1.59c-1.09,0.05-1.99-0.22-2.72-0.81c-0.86-0.72-1.25-1.71-1.13-3c0.16-1.74,1.03-3.3,2.69-4.69
						C182.18,91.65,183.63,91.03,185.15,90.93z M209.96,56.33c-5.01,6.08-8.39,10.74-10.58,14.09c-2.99,4.58-5.63,9.5-7.97,14.74
						c-2.34-0.33-4.68-0.6-7.03-0.82c3.75-9.81,8.06-19.89,12.95-30.21"/>
				</g>
				<g>
					<path class="st5" d="M183.42,90.11c1.16-0.1,2.14,0.2,2.91,0.88c0.93,0.75,1.26,1.81,1.03,3.17c-0.32,1.84-1.37,3.4-3.08,4.69
						c-1.33,1.02-2.66,1.53-4.02,1.59c-1.09,0.05-1.99-0.22-2.72-0.81c-0.86-0.72-1.25-1.71-1.13-3c0.16-1.74,1.03-3.3,2.69-4.69
						C180.45,90.83,181.9,90.21,183.42,90.11z M195.6,53.3c4.25,0.58,8.47,1.32,12.63,2.21c-5.01,6.08-8.39,10.74-10.58,14.09
						c-2.99,4.58-5.63,9.5-7.97,14.74c-2.34-0.33-4.68-0.6-7.03-0.82C186.4,73.7,190.7,63.62,195.6,53.3z"/>
				</g>
			</g>
			<g>
				<path class="st6" d="M19.89,62.67c1.09-0.13,3.12-0.49,6.11-1.08c2.58-0.48,4.65-0.79,6.21-0.92c0.61-0.03,1.2-0.04,1.78-0.04
					c4.48,0,6.7,1.25,6.67,3.76c0,3.55-2.78,7.09-8.35,10.64c3.49-0.19,5.51,0.59,6.06,2.32c0.1,0.37,0.15,0.76,0.15,1.16
					c0,2-1.22,4.02-3.66,6.08c-1.87,1.57-4.17,2.96-6.92,4.16c-3.29,1.44-7.07,2.16-11.35,2.16c-0.68,0-1.36-0.01-2.04-0.04
					c1.32-5.46,2.78-12.81,4.38-22.03C19.4,66.21,19.72,64.16,19.89,62.67z M25.28,79.3c-0.27,1.01-0.56,2.39-0.87,4.12
					c4.78-1.15,7.18-2.45,7.18-3.92c0-0.53-0.59-0.8-1.78-0.8C28.76,78.7,27.25,78.9,25.28,79.3z M28.08,68.59
					c-0.27,0.88-0.53,1.76-0.76,2.64l-0.71,2.64c2.48-1.2,4.24-2.58,5.29-4.16c0.24-0.35,0.36-0.63,0.36-0.84
					c0-0.45-0.44-0.68-1.32-0.68C30.25,68.19,29.3,68.32,28.08,68.59z"/>
				<path class="st6" d="M35.81,91.17c4.99-10,9.02-19.63,12.11-28.91l15.47-2.04C61.63,68.3,60.83,77.86,61,88.9l-10.79,1.96
					l0.76-5l-3.41,0.52l-1.07,3.52L35.81,91.17z M51.79,80.48l2.34-15.09h-0.05l-4.78,15.47L51.79,80.48z"/>
				<path class="st6" d="M90.62,68.97c-1.42,1.12-4.24,3.52-8.45,7.2c-1.42,1.2-2.83,2.4-4.22,3.6c-1.83,1.57-3.12,2.8-3.87,3.68
					l12.01-0.64l-1.07,7.48c-8.79,0.19-16.11,0.6-21.98,1.24l0.05-7.4c1.42-1.31,4.26-3.74,8.5-7.32l8.8-7.4
					c-2.92,0.19-6.06,0.49-9.41,0.92l0.36-7.56l20.61-1.28C91.64,63.14,91.2,65.63,90.62,68.97z"/>
				<path class="st6" d="M97.59,62.61l8.75-1.28c-3.53,10.69-5.84,19.95-6.92,27.79l-8.09,1.76L97.59,62.61z"/>
				<path class="st6" d="M110.14,62.55l8.8-1.4c-0.07,0.83-0.1,2-0.1,3.52c0,3.63,0.15,6.81,0.46,9.56c0.17,1.57,0.42,2.84,0.76,3.8
					l3.46-15.59l8.75-1.28c-3.53,10.69-5.84,19.95-6.92,27.79l-8.04,1.76c-0.03-0.05-0.25-0.52-0.66-1.4L114,83.38
					c-0.44-0.96-0.7-1.57-0.76-1.84c-0.71,3.15-1.27,6.2-1.68,9.16l-8.14,1.92L110.14,62.55z"/>
				<path class="st6" d="M138.93,91.49c-3.6,0-6.14-1.52-7.63-4.56c-0.78-1.52-1.17-3.22-1.17-5.12c0-1.79,0.36-3.74,1.07-5.88
					c1.19-3.65,3.31-7,6.36-10.04c3.7-3.7,7.63-5.56,11.81-5.56c3.63,0,6.19,1.57,7.68,4.72l-5.65,4.76
					c-0.61-0.72-1.51-1.08-2.7-1.08c-2.31,0-4.48,1.25-6.51,3.76c-1.53,1.89-2.66,3.98-3.41,6.28c-0.31,0.91-0.46,1.72-0.46,2.44
					c0,1.09,0.36,1.97,1.07,2.64c0.78,0.75,1.87,1.12,3.26,1.12c1.59,0,3.07-0.57,4.43-1.72c1.09-0.91,1.97-2.05,2.65-3.44
					c-2.51,0.4-4.83,0.81-6.97,1.24l1.61-5.86l13.51-2.28c0.07,1.73-0.41,3.72-1.42,5.95c-0.92,1.97-2.05,3.78-3.41,5.43
					C149.06,89.1,144.36,91.49,138.93,91.49z"/>
				<path class="st6" d="M153.09,91.42c4.99-10,9.02-19.63,12.11-28.91l15.47-2.04c-1.76,8.08-2.56,17.63-2.39,28.67l-10.79,1.96
					l0.76-5l-3.41,0.52l-1.07,3.52L153.09,91.42z M169.07,80.72l2.34-15.09h-0.05l-4.78,15.47L169.07,80.72z"/>
			</g>
		</g>
	</g>
</g>
<g id="DESIGNED_BY_FREEPIK">
</g>
</svg>
